<?xml version="1.0" encoding="utf-8"?>
<!-- Generator: Adobe Illustrator 16.0.0, SVG Export Plug-In . SVG Version: 6.00 Build 0)  -->
<!DOCTYPE svg PUBLIC "-//W3C//DTD SVG 1.1//EN" "http://www.w3.org/Graphics/SVG/1.1/DTD/svg11.dtd">
<svg version="1.1" xmlns="http://www.w3.org/2000/svg" xmlns:xlink="http://www.w3.org/1999/xlink" x="0px" y="0px" width="222px"
	 height="81px" viewBox="0 0 222 81" enable-background="new 0 0 222 81" xml:space="preserve">
<g id="enrichment">
	<g>
		<path d="M15.057,77.37V81H0.267V59.7h14.52v3.63H4.407v5.13h8.97v3.36h-8.97v5.55H15.057z"/>
		<path d="M25.407,67.35V81h-4.14V59.7h3.21l11.1,13.979V59.73h4.14V81h-3.36L25.407,67.35z"/>
		<path d="M47.267,81V59.7h9.42c0.979,0,1.885,0.205,2.715,0.615c0.83,0.41,1.545,0.95,2.145,1.619c0.6,0.671,1.07,1.431,1.41,2.28
			c0.34,0.851,0.51,1.705,0.51,2.565c0,1.38-0.345,2.635-1.035,3.765c-0.69,1.13-1.625,1.945-2.805,2.445l5.01,8.01h-4.68
			l-4.47-7.14h-4.08V81H47.267z M51.407,70.23h5.19c0.38,0,0.735-0.091,1.065-0.271c0.33-0.18,0.615-0.425,0.855-0.735
			c0.24-0.31,0.43-0.675,0.57-1.095c0.14-0.42,0.21-0.87,0.21-1.35c0-0.5-0.08-0.96-0.24-1.38s-0.375-0.785-0.645-1.096
			c-0.27-0.31-0.581-0.55-0.93-0.72c-0.35-0.17-0.705-0.255-1.065-0.255h-5.01V70.23z"/>
		<path d="M70.267,81V59.73h4.14V81H70.267z"/>
		<path d="M81.007,70.2c0-1.3,0.229-2.585,0.69-3.855c0.46-1.27,1.125-2.404,1.995-3.404s1.935-1.811,3.195-2.431
			c1.26-0.619,2.7-0.93,4.32-0.93c1.9,0,3.544,0.431,4.935,1.29c1.39,0.86,2.415,1.979,3.075,3.36l-3.18,2.189
			c-0.24-0.6-0.551-1.104-0.93-1.515c-0.38-0.41-0.795-0.735-1.245-0.976c-0.45-0.239-0.915-0.414-1.395-0.524
			s-0.94-0.165-1.38-0.165c-0.98,0-1.84,0.21-2.58,0.63c-0.74,0.42-1.355,0.965-1.845,1.635c-0.491,0.671-0.86,1.431-1.11,2.28
			c-0.25,0.851-0.375,1.695-0.375,2.535c0,0.94,0.145,1.845,0.435,2.715c0.29,0.87,0.7,1.635,1.23,2.295
			c0.53,0.66,1.165,1.19,1.905,1.59c0.739,0.4,1.549,0.6,2.43,0.6c0.46,0,0.93-0.06,1.41-0.18s0.945-0.31,1.395-0.57
			c0.45-0.259,0.865-0.595,1.245-1.005c0.379-0.409,0.69-0.904,0.93-1.484l3.39,1.95c-0.32,0.8-0.785,1.505-1.395,2.114
			c-0.61,0.61-1.305,1.125-2.085,1.545s-1.6,0.74-2.46,0.96c-0.86,0.221-1.71,0.33-2.55,0.33c-1.48,0-2.835-0.319-4.065-0.96
			c-1.23-0.64-2.29-1.475-3.18-2.505c-0.89-1.029-1.58-2.199-2.07-3.51C81.251,72.896,81.007,71.561,81.007,70.2z"/>
		<path d="M123.177,59.7V81h-4.11v-9.09h-9.66V81h-4.14V59.7h4.14v8.609h9.66V59.7H123.177z"/>
		<path d="M147.637,81V66.9l-5.49,10.5h-2.25l-5.489-10.5V81h-4.141V59.7h4.44l6.3,12.12l6.36-12.12h4.41V81H147.637z"/>
		<path d="M174.057,77.37V81h-14.79V59.7h14.521v3.63h-10.38v5.13h8.97v3.36h-8.97v5.55H174.057z"/>
		<path d="M184.407,67.35V81h-4.141V59.7h3.21l11.101,13.979V59.73h4.14V81h-3.36L184.407,67.35z"/>
		<path d="M222.197,63.33h-6.78V81h-4.14V63.33h-6.811V59.7h17.73V63.33z"/>
	</g>
</g>
<g id="swipe">
	<g>
		<path d="M34.399,9.44c-1.825-2.063-3.864-3.516-6.12-4.356c-2.257-0.839-4.896-1.26-7.92-1.26c-5.472,0-9.432,1.033-11.88,3.096
			c-2.448,2.064-3.672,4.824-3.672,8.28c0,1.728,0.299,3.18,0.9,4.356c0.6,1.177,1.536,2.172,2.808,2.988
			c1.271,0.817,2.892,1.501,4.86,2.052c1.967,0.552,4.32,1.116,7.056,1.692c2.784,0.576,5.303,1.2,7.56,1.872
			c2.256,0.672,4.176,1.524,5.76,2.556c1.584,1.033,2.808,2.316,3.672,3.852c0.864,1.537,1.296,3.433,1.296,5.688
			c0,2.16-0.432,4.057-1.296,5.688c-0.864,1.632-2.088,3-3.672,4.104c-1.584,1.104-3.492,1.933-5.724,2.484
			c-2.232,0.551-4.716,0.828-7.452,0.828c-4.08,0-7.752-0.636-11.016-1.908c-3.265-1.271-6.264-3.228-9-5.868l1.44-1.8
			c2.399,2.448,5.135,4.296,8.208,5.544c3.071,1.249,6.552,1.872,10.44,1.872c4.799,0,8.579-0.875,11.34-2.628
			c2.76-1.752,4.14-4.429,4.14-8.028c0-1.824-0.336-3.372-1.008-4.644c-0.672-1.271-1.692-2.351-3.06-3.24
			c-1.368-0.888-3.085-1.656-5.148-2.304c-2.064-0.648-4.512-1.26-7.344-1.836c-2.784-0.576-5.256-1.176-7.416-1.8
			c-2.16-0.624-3.972-1.416-5.436-2.376c-1.465-0.96-2.568-2.135-3.312-3.528c-0.745-1.392-1.116-3.143-1.116-5.256
			c0-2.256,0.432-4.259,1.296-6.012c0.864-1.751,2.076-3.215,3.636-4.392c1.56-1.175,3.444-2.075,5.652-2.7
			c2.207-0.624,4.68-0.936,7.416-0.936c3.312,0,6.203,0.48,8.676,1.44c2.472,0.961,4.74,2.497,6.804,4.608L34.399,9.44z"/>
		<path d="M68.255,2.312h2.52l7.992,18.864l8.064-18.864h2.448l-9.072,21.096l11.52,26.64L112.319,1.88h2.735L93.023,53h-2.448
			L78.839,25.784L67.031,53h-2.376L42.623,1.88h2.664l20.592,48.168l11.448-26.64L68.255,2.312z"/>
		<path d="M124.103,53V1.952h2.448V53H124.103z"/>
		<path d="M141.823,53V1.88h20.88c2.111,0,4.067,0.457,5.868,1.368c1.8,0.912,3.348,2.1,4.644,3.564
			c1.296,1.465,2.304,3.132,3.024,5.004c0.72,1.872,1.08,3.769,1.08,5.688c0,2.016-0.337,3.973-1.009,5.868
			c-0.673,1.896-1.632,3.576-2.88,5.04c-1.249,1.465-2.735,2.64-4.464,3.528c-1.728,0.889-3.648,1.332-5.76,1.332h-18.937V53
			H141.823z M144.271,30.968h18.864c1.824,0,3.456-0.383,4.896-1.152c1.439-0.767,2.664-1.788,3.672-3.06
			c1.008-1.271,1.787-2.711,2.34-4.32c0.551-1.607,0.828-3.251,0.828-4.932c0-1.728-0.324-3.395-0.973-5.004
			c-0.647-1.607-1.524-3.024-2.628-4.248c-1.104-1.224-2.4-2.207-3.888-2.952c-1.488-0.744-3.072-1.116-4.752-1.116h-18.36V30.968z"
			/>
		<path d="M221.311,50.696V53h-33.768V1.88h33.12v2.304h-30.672v21.528h26.855v2.304h-26.855v22.68H221.311z"/>
	</g>
</g>
<g id="logo.svg_xA0_Image_1_">
</g>
</svg>
